<?xml version="1.0" encoding="utf-8"?>
<!-- Generator: Adobe Illustrator 23.0.2, SVG Export Plug-In . SVG Version: 6.00 Build 0)  -->
<svg version="1.1" id="Capa_1" xmlns="http://www.w3.org/2000/svg" xmlns:xlink="http://www.w3.org/1999/xlink" x="0px" y="0px"
	 viewBox="0 0 77 70" style="enable-background:new 0 0 77 70;" xml:space="preserve">
<style type="text/css">
	.st0{fill:none;}
	.st1{fill:none;stroke:url(#SVGID_1_);stroke-width:0.545;stroke-miterlimit:10;}
	.st2{fill:url(#SVGID_2_);stroke:#A16069;stroke-width:2.660224e-02;stroke-miterlimit:10;}
	.st3{fill:url(#SVGID_3_);stroke:#A16069;stroke-width:2.660224e-02;stroke-miterlimit:10;}
	.st4{fill:url(#SVGID_4_);stroke:#A16069;stroke-width:2.660224e-02;stroke-miterlimit:10;}
	.st5{fill:url(#SVGID_5_);stroke:#A16069;stroke-width:2.660224e-02;stroke-miterlimit:10;}
	.st6{fill:url(#SVGID_6_);stroke:#A16069;stroke-width:2.660224e-02;stroke-miterlimit:10;}
	.st7{fill:url(#SVGID_7_);stroke:#A16069;stroke-width:2.660224e-02;stroke-miterlimit:10;}
	.st8{fill:url(#SVGID_8_);stroke:#A16069;stroke-width:2.660224e-02;stroke-miterlimit:10;}
	.st9{fill:url(#SVGID_9_);stroke:#A16069;stroke-width:2.660224e-02;stroke-miterlimit:10;}
	.st10{fill:url(#SVGID_10_);stroke:#A16069;stroke-width:2.660224e-02;stroke-miterlimit:10;}
	.st11{fill:url(#SVGID_11_);stroke:#A16069;stroke-width:2.660224e-02;stroke-miterlimit:10;}
	.st12{fill:url(#SVGID_12_);stroke:#A16069;stroke-width:2.660224e-02;stroke-miterlimit:10;}
	.st13{fill:url(#SVGID_13_);}
	.st14{fill:url(#SVGID_14_);}
</style>
<circle class="st0" cx="-58.4" cy="41.3" r="1.7"/>
<g>
	<linearGradient id="SVGID_1_" gradientUnits="userSpaceOnUse" x1="7.2275" y1="35.75" x2="68.2725" y2="35.75">
		<stop  offset="0" style="stop-color:#B86E78"/>
		<stop  offset="0.5" style="stop-color:#A16069"/>
		<stop  offset="0.5804" style="stop-color:#8A525A"/>
		<stop  offset="0.6709" style="stop-color:#73444B"/>
		<stop  offset="1" style="stop-color:#5C373C"/>
	</linearGradient>
	<circle class="st1" cx="37.8" cy="35.8" r="30.3"/>
	<g>
		
			<linearGradient id="SVGID_2_" gradientUnits="userSpaceOnUse" x1="54.0475" y1="35.4892" x2="55.9058" y2="35.4892" gradientTransform="matrix(1 -3.412007e-03 3.412007e-03 1 -4.6745 0.6969)">
			<stop  offset="0" style="stop-color:#B86E78"/>
			<stop  offset="0.5" style="stop-color:#A16069"/>
			<stop  offset="0.5804" style="stop-color:#8A525A"/>
			<stop  offset="0.6709" style="stop-color:#73444B"/>
			<stop  offset="1" style="stop-color:#5C373C"/>
		</linearGradient>
		<path class="st2" d="M50.6,36.1l-0.6,0l-0.3,0.7c0,0.1,0,0.1,0,0.1c0,0,0,0,0.1,0l0,0l-0.3,0l0,0c0,0,0.1,0,0.1,0
			c0,0,0.1-0.1,0.1-0.1l0.7-1.8l0,0l0.7,1.7c0,0,0,0.1,0.1,0.1c0,0.1,0.1,0.1,0.2,0.1l0,0l-0.5,0l0,0c0,0,0.1,0,0.1,0
			c0,0,0-0.1,0-0.1c0,0,0,0,0,0c0,0,0,0,0,0L50.6,36.1z M50.1,36l0.5,0l-0.3-0.7L50.1,36z"/>
		
			<linearGradient id="SVGID_3_" gradientUnits="userSpaceOnUse" x1="56.0236" y1="35.5039" x2="58.1441" y2="35.5039" gradientTransform="matrix(1 -3.412007e-03 3.412007e-03 1 -4.6745 0.6969)">
			<stop  offset="0" style="stop-color:#B86E78"/>
			<stop  offset="0.5" style="stop-color:#A16069"/>
			<stop  offset="0.5804" style="stop-color:#8A525A"/>
			<stop  offset="0.6709" style="stop-color:#73444B"/>
			<stop  offset="1" style="stop-color:#5C373C"/>
		</linearGradient>
		<path class="st3" d="M51.5,35L51.5,35l0.9,0c0.2,0,0.4,0,0.5,0.1s0.2,0.1,0.3,0.2c0.1,0.1,0.2,0.2,0.2,0.3
			c0.1,0.1,0.1,0.3,0.1,0.4c0,0.1,0,0.3-0.1,0.4c-0.1,0.1-0.1,0.3-0.2,0.4c-0.1,0.1-0.2,0.2-0.3,0.2c-0.1,0-0.3,0.1-0.5,0.1l-0.9,0
			l0,0l0,0c0,0,0.1,0,0.1-0.1c0,0,0-0.1,0-0.2l0-1.4c0-0.1,0-0.2,0-0.2S51.5,35,51.5,35z M52.1,35.1l-0.3,0l0,1.5c0,0.1,0,0.2,0,0.2
			c0,0,0.1,0.1,0.2,0.1s0.2,0,0.3,0c0.4,0,0.6-0.1,0.8-0.3c0.1-0.2,0.2-0.4,0.2-0.6c0-0.3-0.1-0.5-0.3-0.7S52.6,35.1,52.1,35.1z"/>
		
			<linearGradient id="SVGID_4_" gradientUnits="userSpaceOnUse" x1="58.1776" y1="35.5193" x2="60.0372" y2="35.5193" gradientTransform="matrix(1 -3.412007e-03 3.412007e-03 1 -4.6745 0.6969)">
			<stop  offset="0" style="stop-color:#B86E78"/>
			<stop  offset="0.5" style="stop-color:#A16069"/>
			<stop  offset="0.5804" style="stop-color:#8A525A"/>
			<stop  offset="0.6709" style="stop-color:#73444B"/>
			<stop  offset="1" style="stop-color:#5C373C"/>
		</linearGradient>
		<path class="st4" d="M54.6,37L54.6,37l-0.7-1.7c-0.1-0.1-0.1-0.2-0.1-0.2c0,0-0.1,0-0.1,0l0,0l0.5,0l0,0c0,0-0.1,0-0.1,0
			c0,0,0,0,0,0l0.6,1.5l0.6-1.5c0,0,0,0,0,0c0,0,0,0-0.1,0l0,0l0.3,0l0,0c0,0,0,0-0.1,0c0,0,0,0-0.1,0.1s0,0.1,0,0.1L54.6,37z"/>
		
			<linearGradient id="SVGID_5_" gradientUnits="userSpaceOnUse" x1="60.1563" y1="35.5039" x2="61.5036" y2="35.5039" gradientTransform="matrix(1 -3.412007e-03 3.412007e-03 1 -4.6745 0.6969)">
			<stop  offset="0" style="stop-color:#B86E78"/>
			<stop  offset="0.5" style="stop-color:#A16069"/>
			<stop  offset="0.5804" style="stop-color:#8A525A"/>
			<stop  offset="0.6709" style="stop-color:#73444B"/>
			<stop  offset="1" style="stop-color:#5C373C"/>
		</linearGradient>
		<path class="st5" d="M55.6,35L55.6,35l1.2,0l0,0.3l0,0c0-0.1,0-0.2-0.1-0.2s-0.1,0-0.1,0l-0.7,0l0,0.9l0.6,0c0.1,0,0.1,0,0.1,0
			c0,0,0,0,0,0l0,0l0,0.2l0,0c0,0,0,0,0-0.1c0,0,0,0-0.1,0L56,36l0,0.6c0,0.1,0,0.2,0,0.2c0,0,0,0.1,0.1,0.1c0,0,0.1,0,0.2,0l0.3,0
			c0.1,0,0.2,0,0.2,0c0,0,0.1,0,0.1,0c0,0,0-0.1,0-0.1l0,0l0,0.3l-1.3,0l0,0c0,0,0.1,0,0.1,0s0-0.1,0-0.1l0-1.6c0-0.1,0-0.1,0-0.2
			C55.7,35,55.7,35,55.6,35z"/>
		
			<linearGradient id="SVGID_6_" gradientUnits="userSpaceOnUse" x1="61.6414" y1="35.5132" x2="63.6856" y2="35.5132" gradientTransform="matrix(1 -3.412007e-03 3.412007e-03 1 -4.6745 0.6969)">
			<stop  offset="0" style="stop-color:#B86E78"/>
			<stop  offset="0.5" style="stop-color:#A16069"/>
			<stop  offset="0.5804" style="stop-color:#8A525A"/>
			<stop  offset="0.6709" style="stop-color:#73444B"/>
			<stop  offset="1" style="stop-color:#5C373C"/>
		</linearGradient>
		<path class="st6" d="M57.1,35L57.1,35l0.6,0c0.1,0,0.2,0,0.3,0c0.1,0,0.1,0,0.2,0.1c0.1,0,0.1,0.1,0.2,0.1c0,0.1,0.1,0.1,0.1,0.2
			c0,0.1,0,0.2-0.1,0.3S58.1,35.9,58,36l0.1,0.2c0,0.1,0.1,0.2,0.2,0.4c0.1,0.2,0.2,0.3,0.3,0.3c0.1,0,0.1,0.1,0.2,0.1
			c0.1,0,0.1,0,0.2-0.1l0,0C59,36.9,58.9,37,58.7,37c-0.1,0-0.2,0-0.3-0.1c-0.1-0.1-0.2-0.3-0.4-0.6c0,0,0,0,0,0L57.8,36l-0.2,0
			l-0.2,0l0,0.8c0,0.1,0,0.1,0,0.1c0,0,0.1,0,0.1,0l0,0l-0.5,0l0,0c0.1,0,0.1,0,0.1,0c0,0,0-0.1,0-0.1l0-1.6c0-0.1,0-0.1,0-0.1
			S57.2,35,57.1,35z M57.5,35.1l0,0.9l0.2,0c0.2,0,0.3,0,0.4-0.1s0.1-0.2,0.1-0.3c0-0.1,0-0.2-0.1-0.3s-0.2-0.2-0.4-0.2L57.5,35.1z"
			/>
		
			<linearGradient id="SVGID_7_" gradientUnits="userSpaceOnUse" x1="63.2575" y1="35.4698" x2="64.9152" y2="35.4698" gradientTransform="matrix(1 -3.412007e-03 3.412007e-03 1 -4.6745 0.6969)">
			<stop  offset="0" style="stop-color:#B86E78"/>
			<stop  offset="0.5" style="stop-color:#A16069"/>
			<stop  offset="0.5804" style="stop-color:#8A525A"/>
			<stop  offset="0.6709" style="stop-color:#73444B"/>
			<stop  offset="1" style="stop-color:#5C373C"/>
		</linearGradient>
		<path class="st7" d="M60.4,34.9l-0.1,0.2l0,0c0,0,0,0,0-0.1c0,0,0,0,0,0c0,0,0,0-0.1,0l-0.5,0l0,1.7c0,0.1,0,0.1,0,0.1
			c0,0,0,0,0,0s0.1,0,0.1,0l0,0l-0.5,0l0,0c0.1,0,0.1,0,0.1,0c0,0,0-0.1,0-0.1l0-1.7l-0.5,0c0,0-0.1,0-0.1,0c0,0,0,0,0,0
			c0,0,0,0,0,0.1l0,0l-0.1-0.2l0,0c0,0,0,0.1,0,0.1c0,0,0,0,0.1,0l1.3,0C60.2,35,60.3,35,60.4,34.9C60.3,35,60.3,35,60.4,34.9
			L60.4,34.9z"/>
		
			<linearGradient id="SVGID_8_" gradientUnits="userSpaceOnUse" x1="65.0061" y1="35.5039" x2="65.5319" y2="35.5039" gradientTransform="matrix(1 -3.412007e-03 3.412007e-03 1 -4.6745 0.6969)">
			<stop  offset="0" style="stop-color:#B86E78"/>
			<stop  offset="0.5" style="stop-color:#A16069"/>
			<stop  offset="0.5804" style="stop-color:#8A525A"/>
			<stop  offset="0.6709" style="stop-color:#73444B"/>
			<stop  offset="1" style="stop-color:#5C373C"/>
		</linearGradient>
		<path class="st8" d="M61,35L61,35C60.9,35,60.9,35,61,35c-0.1,0-0.1,0.1-0.1,0.1c0,0,0,0.1,0,0.1l0,1.5c0,0.1,0,0.1,0,0.2
			c0,0,0,0,0,0s0.1,0,0.1,0l0,0l-0.5,0l0,0c0.1,0,0.1,0,0.1,0c0,0,0-0.1,0-0.2l0-1.5c0-0.1,0-0.2,0-0.2s-0.1,0-0.1,0l0,0L61,35z"/>
		
			<linearGradient id="SVGID_9_" gradientUnits="userSpaceOnUse" x1="65.6925" y1="35.4892" x2="66.8765" y2="35.4892" gradientTransform="matrix(1 -3.412007e-03 3.412007e-03 1 -4.6745 0.6969)">
			<stop  offset="0" style="stop-color:#B86E78"/>
			<stop  offset="0.5" style="stop-color:#A16069"/>
			<stop  offset="0.5804" style="stop-color:#8A525A"/>
			<stop  offset="0.6709" style="stop-color:#73444B"/>
			<stop  offset="1" style="stop-color:#5C373C"/>
		</linearGradient>
		<path class="st9" d="M62.1,35l0.1,0.2l0,0c0,0,0,0-0.1-0.1c0-0.1-0.1-0.1-0.2-0.1c-0.1,0-0.1,0-0.2,0c-0.1,0-0.2,0-0.3,0.1
			c-0.1,0.1-0.1,0.2-0.1,0.3c0,0.1,0,0.1,0.1,0.2c0,0.1,0.1,0.1,0.2,0.2c0.2,0.1,0.3,0.1,0.4,0.2c0.1,0,0.1,0.1,0.2,0.2
			c0.1,0.1,0.1,0.2,0.1,0.3c0,0.1,0,0.1,0,0.2c0,0,0,0.1-0.1,0.1c0,0-0.1,0.1-0.1,0.1c0,0-0.1,0.1-0.1,0.1c0,0-0.1,0-0.2,0
			s-0.1,0-0.2,0l-0.5,0l0-0.6l0,0c0,0.2,0,0.3,0.1,0.4c0.1,0.1,0.2,0.1,0.4,0.1c0.2,0,0.3,0,0.4-0.1c0.1-0.1,0.1-0.2,0.1-0.3
			c0-0.1,0-0.1,0-0.2c0,0-0.1-0.1-0.1-0.1c-0.1,0-0.2-0.1-0.3-0.1c-0.2-0.1-0.3-0.1-0.3-0.1c-0.1,0-0.1-0.1-0.2-0.2
			c0-0.1-0.1-0.2-0.1-0.2c0-0.2,0.1-0.3,0.2-0.4c0.1-0.1,0.2-0.2,0.4-0.2c0.1,0,0.1,0,0.2,0C62.1,35,62.1,35,62.1,35
			C62.1,35,62.1,35,62.1,35z"/>
		
			<linearGradient id="SVGID_10_" gradientUnits="userSpaceOnUse" x1="67.0304" y1="35.5039" x2="67.5562" y2="35.5039" gradientTransform="matrix(1 -3.412007e-03 3.412007e-03 1 -4.6745 0.6969)">
			<stop  offset="0" style="stop-color:#B86E78"/>
			<stop  offset="0.5" style="stop-color:#A16069"/>
			<stop  offset="0.5804" style="stop-color:#8A525A"/>
			<stop  offset="0.6709" style="stop-color:#73444B"/>
			<stop  offset="1" style="stop-color:#5C373C"/>
		</linearGradient>
		<path class="st10" d="M63,35L63,35C63,35,62.9,35,63,35c-0.1,0-0.1,0.1-0.1,0.1c0,0,0,0.1,0,0.1l0,1.5c0,0.1,0,0.1,0,0.2s0,0,0,0
			c0,0,0.1,0,0.1,0l0,0l-0.5,0l0,0c0.1,0,0.1,0,0.1,0c0,0,0-0.1,0-0.2l0-1.5c0-0.1,0-0.2,0-0.2c0,0-0.1,0-0.1,0l0,0L63,35z"/>
		
			<linearGradient id="SVGID_11_" gradientUnits="userSpaceOnUse" x1="67.6672" y1="35.5159" x2="69.753" y2="35.5159" gradientTransform="matrix(1 -3.412007e-03 3.412007e-03 1 -4.6745 0.6969)">
			<stop  offset="0" style="stop-color:#B86E78"/>
			<stop  offset="0.5" style="stop-color:#A16069"/>
			<stop  offset="0.5804" style="stop-color:#8A525A"/>
			<stop  offset="0.6709" style="stop-color:#73444B"/>
			<stop  offset="1" style="stop-color:#5C373C"/>
		</linearGradient>
		<path class="st11" d="M64.8,35l0.4,0l0,0c-0.1,0-0.1,0-0.1,0c0,0,0,0.1,0,0.1l0,1.8l-1.6-1.7l0,1.5c0,0,0,0.1,0,0.1s0,0,0,0
			c0,0,0,0,0.1,0l0,0l-0.4,0l0,0c0.1,0,0.1,0,0.1,0s0-0.1,0-0.2l0-1.3c0-0.1,0-0.2,0-0.3c0-0.1-0.1-0.1-0.2-0.1l0,0l0.4,0l1.5,1.6
			l0-1.4c0-0.1,0-0.1,0-0.1C64.9,35,64.9,35,64.8,35L64.8,35z"/>
		
			<linearGradient id="SVGID_12_" gradientUnits="userSpaceOnUse" x1="69.9363" y1="35.4892" x2="71.8815" y2="35.4892" gradientTransform="matrix(1 -3.412007e-03 3.412007e-03 1 -4.6745 0.6969)">
			<stop  offset="0" style="stop-color:#B86E78"/>
			<stop  offset="0.5" style="stop-color:#A16069"/>
			<stop  offset="0.5804" style="stop-color:#8A525A"/>
			<stop  offset="0.6709" style="stop-color:#73444B"/>
			<stop  offset="1" style="stop-color:#5C373C"/>
		</linearGradient>
		<path class="st12" d="M67.3,36.9L67.3,36.9l-0.8,0c-0.2,0-0.3,0-0.4,0c-0.1,0-0.2-0.1-0.4-0.2s-0.2-0.2-0.3-0.3
			c-0.1-0.1-0.1-0.3-0.1-0.4c0-0.2,0-0.3,0.1-0.5c0.1-0.2,0.2-0.3,0.4-0.4c0.2-0.1,0.4-0.1,0.6-0.1c0.2,0,0.4,0,0.6,0.1l0.1,0.2l0,0
			c-0.1-0.1-0.2-0.2-0.3-0.2S66.6,35,66.5,35c-0.3,0-0.5,0.1-0.6,0.3c-0.2,0.2-0.2,0.4-0.2,0.7c0,0.1,0,0.2,0,0.3
			c0,0.1,0.1,0.2,0.2,0.3c0.1,0.1,0.2,0.2,0.2,0.2c0.1,0,0.2,0.1,0.3,0.1c0.1,0,0.2,0,0.2,0l0.1,0c0.1,0,0.2,0,0.2,0
			c0,0,0-0.1,0-0.1l0-0.3c0-0.1,0-0.1,0-0.1c0,0-0.1,0-0.1,0l0,0l0.5,0l0,0c-0.1,0-0.1,0-0.1,0c0,0,0,0.1,0,0.1l0,0.3
			c0,0.1,0,0.1,0,0.1C67.2,36.9,67.3,36.9,67.3,36.9L67.3,36.9z"/>
	</g>
	<g>
		<linearGradient id="SVGID_13_" gradientUnits="userSpaceOnUse" x1="12.2056" y1="38.1251" x2="74.4981" y2="38.1251">
			<stop  offset="0" style="stop-color:#B86E78"/>
			<stop  offset="0.5" style="stop-color:#A16069"/>
			<stop  offset="0.5804" style="stop-color:#8A525A"/>
			<stop  offset="0.6709" style="stop-color:#73444B"/>
			<stop  offset="1" style="stop-color:#5C373C"/>
		</linearGradient>
		<path class="st13" d="M74.2,61c-0.4-0.8-0.9-1.7-1.5-2c-0.4,1.8-1.5,2.9-1.5,2.9c1.3-6.9-18.3-5.2-31.7-3.2
			c-11.8,1.7-9.4-20.1-9.4-20.1c0.5-6.1,2.1-14.1,2.5-16.8c0.4-2.7,0.1-3.5,0.1-3.5c-1.1,0.5-3.5,10.3-4.7,19.3
			c-0.4,2.4-1.2,8.1-1.5,8.8c-0.2,1-0.9,1.6-1.8,1.5c-0.8-0.1-1-1.9-1-1.9c-0.3-2.1,1-16.3,1.4-20.2c0.5-4,0.1-4.1,0.1-4.1
			c-1.2,0.3-4.3,19.9-4.9,23.9c-0.5,3.5-1.6,3.9-1.9,4c-0.4,0.2-0.9,0-0.9,0c-2.5-0.8-1.4-8.9-1.4-8.9c0.4-2.9,0.9-6.2,0.9-6.2
			c1-6.5,2-14.7,0.6-15.3c-2.8-1.2-3.3,9.4-3.3,9.4c-0.5-0.6-0.9-1.3-1.1-2.4c-0.3,0-1.1,0.1-1.1,0.1c1.4-9.5,5.9-8.1,5.9-8.1
			c2.9,0.5,2.5,9.9,1.7,16.8c0,0-0.4,4.2-0.4,7.3c1.3-8.2,3.8-23.9,6.8-23.6c2.1,0.1,2.3,4.9,2.1,9.4c1.5-7.1,3.5-13.5,5.5-13.5
			c2.8,0,1.8,6.5,1.8,6.5c-0.4,3.4-1.5,11.6-2.1,17.7c0,0-1.6,16.5,2.2,17.7c0,0,1.6,0.7,7.4-0.9C50.1,53.5,77.4,49.3,74.2,61z"/>
		<linearGradient id="SVGID_14_" gradientUnits="userSpaceOnUse" x1="36.7181" y1="36.7282" x2="48.4665" y2="36.7282">
			<stop  offset="0" style="stop-color:#B86E78"/>
			<stop  offset="0.5" style="stop-color:#A16069"/>
			<stop  offset="0.5804" style="stop-color:#8A525A"/>
			<stop  offset="0.6709" style="stop-color:#73444B"/>
			<stop  offset="1" style="stop-color:#5C373C"/>
		</linearGradient>
		<path class="st14" d="M41,17.4c0.6,0.6,1.3,1.9,0.8,6.4c-0.2,2.4-0.7,7.5-1.2,12.5c0.4,0.2,0.8,0.3,1.1,0.3
			c2.3,0.3,4.4-0.2,6.3-1.9c0.2-0.1,0.4-0.1,0.4,0.2c0.1,0.3,0.1,1-0.4,1.5c-1.5,1.5-3.6,2.2-5.6,2.1c0,0-0.1,0-0.1,0
			c3.3,5.3,2.1,17.6-2.3,17.7c-5.2,0.1-2.8-18.6-2.8-18.6c0.4-4.3,0.9-8.4,1.1-10.5c0.5-3.6,1.2-7.9,0.8-9.3c0,0,1.1,0.5,1.3,1.3
			C40.8,18.5,40.9,18,41,17.4z M40.5,38.7c-0.4,3.6-1.2,14.8-0.2,14.9C42.2,54,43.6,43.1,40.5,38.7z"/>
	</g>
</g>
</svg>
